<mxfile host="app.diagrams.net" modified="2021-05-17T07:54:59.485Z" agent="5.0 (Windows NT 10.0; Win64; x64) AppleWebKit/537.36 (KHTML, like Gecko) Chrome/90.0.4430.212 Safari/537.36" etag="iIM4AC-FKh7XPfvkBf-e" version="14.6.13" type="github">
  <diagram id="PJUxnGwRQ2LzG6qYGxSs" name="Page-1">
    <mxGraphModel dx="939" dy="499" grid="1" gridSize="10" guides="1" tooltips="1" connect="1" arrows="1" fold="1" page="1" pageScale="1" pageWidth="827" pageHeight="1169" math="0" shadow="0">
      <root>
        <mxCell id="0" />
        <mxCell id="1" parent="0" />
        <mxCell id="JHEQHtTBHaFJ3bnIi1gl-44" value="" style="rounded=1;whiteSpace=wrap;html=1;fillColor=#fad9d5;strokeColor=#ae4132;" vertex="1" parent="1">
          <mxGeometry x="40" y="560" width="750" height="440" as="geometry" />
        </mxCell>
        <mxCell id="JHEQHtTBHaFJ3bnIi1gl-2" value="" style="rounded=1;whiteSpace=wrap;html=1;fillColor=#ffe6cc;strokeColor=#d79b00;" vertex="1" parent="1">
          <mxGeometry x="60" y="610" width="300" height="370" as="geometry" />
        </mxCell>
        <mxCell id="JHEQHtTBHaFJ3bnIi1gl-36" value="" style="rounded=1;whiteSpace=wrap;html=1;fillColor=#ffe6cc;strokeColor=#d79b00;" vertex="1" parent="1">
          <mxGeometry x="396" y="610" width="374" height="370" as="geometry" />
        </mxCell>
        <mxCell id="JHEQHtTBHaFJ3bnIi1gl-1" value="" style="rounded=1;whiteSpace=wrap;html=1;fillColor=#d5e8d4;strokeColor=#82b366;" vertex="1" parent="1">
          <mxGeometry x="34" y="80" width="760" height="400" as="geometry" />
        </mxCell>
        <mxCell id="JHEQHtTBHaFJ3bnIi1gl-4" value="" style="shape=flexArrow;endArrow=classic;startArrow=classic;html=1;fillColor=#f5f5f5;strokeColor=#666666;" edge="1" parent="1" source="JHEQHtTBHaFJ3bnIi1gl-36">
          <mxGeometry width="100" height="100" relative="1" as="geometry">
            <mxPoint x="600" y="558" as="sourcePoint" />
            <mxPoint x="583" y="480" as="targetPoint" />
            <Array as="points" />
          </mxGeometry>
        </mxCell>
        <mxCell id="JHEQHtTBHaFJ3bnIi1gl-5" value="&lt;span style=&quot;font-size: 21px&quot;&gt;API&amp;nbsp;&lt;/span&gt;" style="text;html=1;strokeColor=none;fillColor=none;align=left;verticalAlign=middle;whiteSpace=wrap;rounded=0;" vertex="1" parent="1">
          <mxGeometry x="430" y="620" width="180" height="40" as="geometry" />
        </mxCell>
        <mxCell id="JHEQHtTBHaFJ3bnIi1gl-8" value="" style="rounded=1;whiteSpace=wrap;html=1;" vertex="1" parent="1">
          <mxGeometry x="34" y="1070" width="756" height="60" as="geometry" />
        </mxCell>
        <mxCell id="JHEQHtTBHaFJ3bnIi1gl-9" value="&lt;font style=&quot;font-size: 24px&quot;&gt;DB ( PostgreSQL )&lt;/font&gt;" style="text;html=1;strokeColor=none;fillColor=none;align=left;verticalAlign=middle;whiteSpace=wrap;rounded=0;" vertex="1" parent="1">
          <mxGeometry x="300" y="1080" width="230" height="40" as="geometry" />
        </mxCell>
        <mxCell id="JHEQHtTBHaFJ3bnIi1gl-12" value="&lt;font style=&quot;font-size: 24px&quot;&gt;BackEnd&lt;/font&gt;" style="text;html=1;strokeColor=none;fillColor=none;align=left;verticalAlign=middle;whiteSpace=wrap;rounded=0;" vertex="1" parent="1">
          <mxGeometry x="90" y="620" width="230" height="40" as="geometry" />
        </mxCell>
        <mxCell id="JHEQHtTBHaFJ3bnIi1gl-13" value="&lt;font style=&quot;font-size: 24px&quot;&gt;FrontEnd ( NuxtJS )&lt;/font&gt;" style="text;html=1;strokeColor=none;fillColor=none;align=left;verticalAlign=middle;whiteSpace=wrap;rounded=0;" vertex="1" parent="1">
          <mxGeometry x="300" y="90" width="230" height="40" as="geometry" />
        </mxCell>
        <mxCell id="JHEQHtTBHaFJ3bnIi1gl-17" value="/login" style="swimlane;fontStyle=0;childLayout=stackLayout;horizontal=1;startSize=26;horizontalStack=0;resizeParent=1;resizeParentMax=0;resizeLast=0;collapsible=1;marginBottom=0;fillColor=#dae8fc;strokeColor=#6c8ebf;" vertex="1" parent="1">
          <mxGeometry x="92.5" y="660" width="235" height="82" as="geometry" />
        </mxCell>
        <mxCell id="JHEQHtTBHaFJ3bnIi1gl-18" value="・username&#xa;・password&#xa;・email" style="text;align=left;verticalAlign=top;spacingLeft=4;spacingRight=4;overflow=hidden;rotatable=0;points=[[0,0.5],[1,0.5]];portConstraint=eastwest;fillColor=#f5f5f5;strokeColor=#666666;fontColor=#333333;" vertex="1" parent="JHEQHtTBHaFJ3bnIi1gl-17">
          <mxGeometry y="26" width="235" height="56" as="geometry" />
        </mxCell>
        <mxCell id="JHEQHtTBHaFJ3bnIi1gl-22" value="/admin/username" style="swimlane;fontStyle=0;childLayout=stackLayout;horizontal=1;startSize=26;horizontalStack=0;resizeParent=1;resizeParentMax=0;resizeLast=0;collapsible=1;marginBottom=0;fillColor=#dae8fc;strokeColor=#6c8ebf;" vertex="1" parent="1">
          <mxGeometry x="90" y="760" width="235" height="60" as="geometry" />
        </mxCell>
        <mxCell id="JHEQHtTBHaFJ3bnIi1gl-23" value="・authority&#xa;" style="text;align=left;verticalAlign=top;spacingLeft=4;spacingRight=4;overflow=hidden;rotatable=0;points=[[0,0.5],[1,0.5]];portConstraint=eastwest;fillColor=#f5f5f5;strokeColor=#666666;fontColor=#333333;" vertex="1" parent="JHEQHtTBHaFJ3bnIi1gl-22">
          <mxGeometry y="26" width="235" height="34" as="geometry" />
        </mxCell>
        <mxCell id="JHEQHtTBHaFJ3bnIi1gl-30" value="/api/post/ ( object_id )" style="swimlane;fontStyle=0;childLayout=stackLayout;horizontal=1;startSize=26;horizontalStack=0;resizeParent=1;resizeParentMax=0;resizeLast=0;collapsible=1;marginBottom=0;fillColor=#f8cecc;strokeColor=#b85450;" vertex="1" parent="1">
          <mxGeometry x="430" y="820" width="310" height="130" as="geometry" />
        </mxCell>
        <mxCell id="JHEQHtTBHaFJ3bnIi1gl-31" value="・authority&#xa;・allPostList&#xa;・post_edit&#xa;・post_delete&#xa;・post_create&#xa;・user_registor ( admin )" style="text;align=left;verticalAlign=top;spacingLeft=4;spacingRight=4;overflow=hidden;rotatable=0;points=[[0,0.5],[1,0.5]];portConstraint=eastwest;fillColor=#f5f5f5;strokeColor=#666666;fontColor=#333333;" vertex="1" parent="JHEQHtTBHaFJ3bnIi1gl-30">
          <mxGeometry y="26" width="310" height="104" as="geometry" />
        </mxCell>
        <mxCell id="JHEQHtTBHaFJ3bnIi1gl-32" value="/api/allpost/(pn)" style="swimlane;fontStyle=0;childLayout=stackLayout;horizontal=1;startSize=26;horizontalStack=0;resizeParent=1;resizeParentMax=0;resizeLast=0;collapsible=1;marginBottom=0;fillColor=#f8cecc;strokeColor=#b85450;" vertex="1" parent="1">
          <mxGeometry x="430" y="660" width="310" height="60" as="geometry" />
        </mxCell>
        <mxCell id="JHEQHtTBHaFJ3bnIi1gl-33" value="・object_id ( public all posts )" style="text;align=left;verticalAlign=top;spacingLeft=4;spacingRight=4;overflow=hidden;rotatable=0;points=[[0,0.5],[1,0.5]];portConstraint=eastwest;fillColor=#f5f5f5;strokeColor=#666666;fontColor=#333333;" vertex="1" parent="JHEQHtTBHaFJ3bnIi1gl-32">
          <mxGeometry y="26" width="310" height="34" as="geometry" />
        </mxCell>
        <mxCell id="JHEQHtTBHaFJ3bnIi1gl-34" value="/api/ ( taxsonomy ) / (pn)  " style="swimlane;fontStyle=0;childLayout=stackLayout;horizontal=1;startSize=26;horizontalStack=0;resizeParent=1;resizeParentMax=0;resizeLast=0;collapsible=1;marginBottom=0;fillColor=#f8cecc;strokeColor=#b85450;" vertex="1" parent="1">
          <mxGeometry x="430" y="742" width="310" height="60" as="geometry" />
        </mxCell>
        <mxCell id="JHEQHtTBHaFJ3bnIi1gl-35" value="・taxsonomy ( category / tag )" style="text;align=left;verticalAlign=top;spacingLeft=4;spacingRight=4;overflow=hidden;rotatable=0;points=[[0,0.5],[1,0.5]];portConstraint=eastwest;fillColor=#f5f5f5;strokeColor=#666666;fontColor=#333333;" vertex="1" parent="JHEQHtTBHaFJ3bnIi1gl-34">
          <mxGeometry y="26" width="310" height="34" as="geometry" />
        </mxCell>
        <mxCell id="JHEQHtTBHaFJ3bnIi1gl-37" value="" style="endArrow=classic;html=1;fontColor=none;exitX=0.75;exitY=0;exitDx=0;exitDy=0;" edge="1" parent="1" source="JHEQHtTBHaFJ3bnIi1gl-8">
          <mxGeometry width="50" height="50" relative="1" as="geometry">
            <mxPoint x="550" y="850" as="sourcePoint" />
            <mxPoint x="600" y="980" as="targetPoint" />
          </mxGeometry>
        </mxCell>
        <mxCell id="JHEQHtTBHaFJ3bnIi1gl-38" value="&lt;span style=&quot;font-size: 21px&quot;&gt;Read&lt;/span&gt;" style="text;html=1;strokeColor=none;fillColor=none;align=left;verticalAlign=middle;whiteSpace=wrap;rounded=0;" vertex="1" parent="1">
          <mxGeometry x="620" y="1020" width="180" height="40" as="geometry" />
        </mxCell>
        <mxCell id="JHEQHtTBHaFJ3bnIi1gl-39" value="" style="endArrow=classic;html=1;fontColor=none;entryX=0.167;entryY=0;entryDx=0;entryDy=0;entryPerimeter=0;" edge="1" parent="1" target="JHEQHtTBHaFJ3bnIi1gl-8">
          <mxGeometry width="50" height="50" relative="1" as="geometry">
            <mxPoint x="160" y="980" as="sourcePoint" />
            <mxPoint x="160" y="880" as="targetPoint" />
          </mxGeometry>
        </mxCell>
        <mxCell id="JHEQHtTBHaFJ3bnIi1gl-40" value="&lt;span style=&quot;font-size: 21px&quot;&gt;CRUD&lt;/span&gt;" style="text;html=1;strokeColor=none;fillColor=none;align=left;verticalAlign=middle;whiteSpace=wrap;rounded=0;" vertex="1" parent="1">
          <mxGeometry x="180" y="1000" width="180" height="40" as="geometry" />
        </mxCell>
        <mxCell id="JHEQHtTBHaFJ3bnIi1gl-41" value="/" style="swimlane;fontStyle=0;childLayout=stackLayout;horizontal=1;startSize=26;horizontalStack=0;resizeParent=1;resizeParentMax=0;resizeLast=0;collapsible=1;marginBottom=0;fillColor=#1ba1e2;strokeColor=#006EAF;fontColor=#ffffff;" vertex="1" parent="1">
          <mxGeometry x="60" y="150" width="210" height="90" as="geometry" />
        </mxCell>
        <mxCell id="JHEQHtTBHaFJ3bnIi1gl-42" value="otherLink" style="text;align=left;verticalAlign=top;spacingLeft=4;spacingRight=4;overflow=hidden;rotatable=0;points=[[0,0.5],[1,0.5]];portConstraint=eastwest;fillColor=#f5f5f5;strokeColor=#666666;fontColor=#333333;" vertex="1" parent="JHEQHtTBHaFJ3bnIi1gl-41">
          <mxGeometry y="26" width="210" height="32" as="geometry" />
        </mxCell>
        <mxCell id="JHEQHtTBHaFJ3bnIi1gl-46" value="new post" style="text;align=left;verticalAlign=top;spacingLeft=4;spacingRight=4;overflow=hidden;rotatable=0;points=[[0,0.5],[1,0.5]];portConstraint=eastwest;fillColor=#f5f5f5;strokeColor=#666666;fontColor=#333333;" vertex="1" parent="JHEQHtTBHaFJ3bnIi1gl-41">
          <mxGeometry y="58" width="210" height="32" as="geometry" />
        </mxCell>
        <mxCell id="JHEQHtTBHaFJ3bnIi1gl-26" value="/admin/ ( username ) /post/ ( crud )" style="swimlane;fontStyle=0;childLayout=stackLayout;horizontal=1;startSize=26;horizontalStack=0;resizeParent=1;resizeParentMax=0;resizeLast=0;collapsible=1;marginBottom=0;fillColor=#dae8fc;strokeColor=#6c8ebf;" vertex="1" parent="1">
          <mxGeometry x="90" y="820" width="235" height="130" as="geometry" />
        </mxCell>
        <mxCell id="JHEQHtTBHaFJ3bnIi1gl-27" value="・authority&#xa;・allPostList&#xa;・post_edit&#xa;・post_delete&#xa;・post_create&#xa;・user_registor ( admin )" style="text;align=left;verticalAlign=top;spacingLeft=4;spacingRight=4;overflow=hidden;rotatable=0;points=[[0,0.5],[1,0.5]];portConstraint=eastwest;fillColor=#f5f5f5;strokeColor=#666666;fontColor=#333333;" vertex="1" parent="JHEQHtTBHaFJ3bnIi1gl-26">
          <mxGeometry y="26" width="235" height="104" as="geometry" />
        </mxCell>
        <mxCell id="JHEQHtTBHaFJ3bnIi1gl-45" value="&lt;font style=&quot;font-size: 24px&quot;&gt;Laravel&lt;/font&gt;" style="text;html=1;strokeColor=none;fillColor=none;align=left;verticalAlign=middle;whiteSpace=wrap;rounded=0;" vertex="1" parent="1">
          <mxGeometry x="360" y="570" width="230" height="40" as="geometry" />
        </mxCell>
        <mxCell id="JHEQHtTBHaFJ3bnIi1gl-47" value="/blog  or  /blog/1  or  /blog/post" style="swimlane;fontStyle=0;childLayout=stackLayout;horizontal=1;startSize=26;horizontalStack=0;resizeParent=1;resizeParentMax=0;resizeLast=0;collapsible=1;marginBottom=0;fillColor=#1ba1e2;strokeColor=#006EAF;fontColor=#ffffff;" vertex="1" parent="1">
          <mxGeometry x="297" y="150" width="230" height="290" as="geometry" />
        </mxCell>
        <mxCell id="JHEQHtTBHaFJ3bnIi1gl-48" value="/api/allpost/1" style="text;align=left;verticalAlign=top;spacingLeft=4;spacingRight=4;overflow=hidden;rotatable=0;points=[[0,0.5],[1,0.5]];portConstraint=eastwest;fillColor=#f5f5f5;strokeColor=#666666;fontColor=#333333;" vertex="1" parent="JHEQHtTBHaFJ3bnIi1gl-47">
          <mxGeometry y="26" width="230" height="32" as="geometry" />
        </mxCell>
        <mxCell id="JHEQHtTBHaFJ3bnIi1gl-50" value="/blog/ (pn)" style="swimlane;fontStyle=0;childLayout=stackLayout;horizontal=1;startSize=26;horizontalStack=0;resizeParent=1;resizeParentMax=0;resizeLast=0;collapsible=1;marginBottom=0;fillColor=#1ba1e2;strokeColor=#006EAF;fontColor=#ffffff;" vertex="1" parent="JHEQHtTBHaFJ3bnIi1gl-47">
          <mxGeometry y="58" width="230" height="232" as="geometry" />
        </mxCell>
        <mxCell id="JHEQHtTBHaFJ3bnIi1gl-51" value="/api/allpost/ (pn)" style="text;align=left;verticalAlign=top;spacingLeft=4;spacingRight=4;overflow=hidden;rotatable=0;points=[[0,0.5],[1,0.5]];portConstraint=eastwest;fillColor=#f5f5f5;strokeColor=#666666;fontColor=#333333;" vertex="1" parent="JHEQHtTBHaFJ3bnIi1gl-50">
          <mxGeometry y="26" width="230" height="32" as="geometry" />
        </mxCell>
        <mxCell id="JHEQHtTBHaFJ3bnIi1gl-52" value="/blog/post/ ( object_id )" style="swimlane;fontStyle=0;childLayout=stackLayout;horizontal=1;startSize=26;horizontalStack=0;resizeParent=1;resizeParentMax=0;resizeLast=0;collapsible=1;marginBottom=0;fillColor=#1ba1e2;strokeColor=#006EAF;fontColor=#ffffff;" vertex="1" parent="JHEQHtTBHaFJ3bnIi1gl-50">
          <mxGeometry y="58" width="230" height="174" as="geometry" />
        </mxCell>
        <mxCell id="JHEQHtTBHaFJ3bnIi1gl-53" value="/api/post/ ( object_id )" style="text;align=left;verticalAlign=top;spacingLeft=4;spacingRight=4;overflow=hidden;rotatable=0;points=[[0,0.5],[1,0.5]];portConstraint=eastwest;fillColor=#f5f5f5;strokeColor=#666666;fontColor=#333333;" vertex="1" parent="JHEQHtTBHaFJ3bnIi1gl-52">
          <mxGeometry y="26" width="230" height="32" as="geometry" />
        </mxCell>
        <mxCell id="JHEQHtTBHaFJ3bnIi1gl-54" value="/blog/ ( taxonomy ) / ( pn )" style="swimlane;fontStyle=0;childLayout=stackLayout;horizontal=1;startSize=26;horizontalStack=0;resizeParent=1;resizeParentMax=0;resizeLast=0;collapsible=1;marginBottom=0;fillColor=#1ba1e2;strokeColor=#006EAF;fontColor=#ffffff;" vertex="1" parent="JHEQHtTBHaFJ3bnIi1gl-52">
          <mxGeometry y="58" width="230" height="116" as="geometry" />
        </mxCell>
        <mxCell id="JHEQHtTBHaFJ3bnIi1gl-55" value="/api/ ( taxsonomy ) / (pn)  " style="text;align=left;verticalAlign=top;spacingLeft=4;spacingRight=4;overflow=hidden;rotatable=0;points=[[0,0.5],[1,0.5]];portConstraint=eastwest;fillColor=#f5f5f5;strokeColor=#666666;fontColor=#333333;" vertex="1" parent="JHEQHtTBHaFJ3bnIi1gl-54">
          <mxGeometry y="26" width="230" height="32" as="geometry" />
        </mxCell>
        <mxCell id="JHEQHtTBHaFJ3bnIi1gl-58" value="/blog/ ( taxonomy )   or  /blog/. (tax) / 1" style="swimlane;fontStyle=0;childLayout=stackLayout;horizontal=1;startSize=26;horizontalStack=0;resizeParent=1;resizeParentMax=0;resizeLast=0;collapsible=1;marginBottom=0;fillColor=#1ba1e2;strokeColor=#006EAF;fontColor=#ffffff;" vertex="1" parent="JHEQHtTBHaFJ3bnIi1gl-54">
          <mxGeometry y="58" width="230" height="58" as="geometry" />
        </mxCell>
        <mxCell id="JHEQHtTBHaFJ3bnIi1gl-59" value="/api/ ( taxsonomy ) / 1" style="text;align=left;verticalAlign=top;spacingLeft=4;spacingRight=4;overflow=hidden;rotatable=0;points=[[0,0.5],[1,0.5]];portConstraint=eastwest;fillColor=#f5f5f5;strokeColor=#666666;fontColor=#333333;" vertex="1" parent="JHEQHtTBHaFJ3bnIi1gl-58">
          <mxGeometry y="26" width="230" height="32" as="geometry" />
        </mxCell>
      </root>
    </mxGraphModel>
  </diagram>
</mxfile>
